<mxfile host="Electron" agent="Mozilla/5.0 (Macintosh; Intel Mac OS X 10_15_7) AppleWebKit/537.36 (KHTML, like Gecko) draw.io/24.7.17 Chrome/128.0.6613.36 Electron/32.0.1 Safari/537.36" version="24.7.17">
  <diagram name="Page-1" id="0Awox8vpgQFOPTNNr-SR">
    <mxGraphModel dx="955" dy="698" grid="1" gridSize="10" guides="1" tooltips="1" connect="1" arrows="1" fold="1" page="1" pageScale="1" pageWidth="850" pageHeight="1100" math="0" shadow="0">
      <root>
        <mxCell id="0" />
        <mxCell id="1" parent="0" />
        <mxCell id="Erd0pCjpf10aL4VD4ASl-1" value="Player&lt;div&gt;&lt;br&gt;&lt;/div&gt;&lt;div&gt;&lt;br&gt;&lt;/div&gt;&lt;div&gt;&lt;br&gt;&lt;/div&gt;&lt;div&gt;&lt;br&gt;&lt;/div&gt;" style="shape=umlLifeline;perimeter=lifelinePerimeter;whiteSpace=wrap;html=1;container=1;dropTarget=0;collapsible=0;recursiveResize=0;outlineConnect=0;portConstraint=eastwest;newEdgeStyle={&quot;curved&quot;:0,&quot;rounded&quot;:0};participant=umlActor;" parent="1" vertex="1">
          <mxGeometry x="170" y="120" width="20" height="500" as="geometry" />
        </mxCell>
        <mxCell id="IvMWWoh6O5VcTkv94cO7-5" value="" style="html=1;points=[[0,0,0,0,5],[0,1,0,0,-5],[1,0,0,0,5],[1,1,0,0,-5]];perimeter=orthogonalPerimeter;outlineConnect=0;targetShapes=umlLifeline;portConstraint=eastwest;newEdgeStyle={&quot;curved&quot;:0,&quot;rounded&quot;:0};" vertex="1" parent="Erd0pCjpf10aL4VD4ASl-1">
          <mxGeometry x="5" y="90" width="10" height="370" as="geometry" />
        </mxCell>
        <mxCell id="Erd0pCjpf10aL4VD4ASl-2" value=":HelpPanel" style="shape=umlLifeline;perimeter=lifelinePerimeter;whiteSpace=wrap;html=1;container=1;dropTarget=0;collapsible=0;recursiveResize=0;outlineConnect=0;portConstraint=eastwest;newEdgeStyle={&quot;curved&quot;:0,&quot;rounded&quot;:0};" parent="1" vertex="1">
          <mxGeometry x="330" y="120" width="100" height="500" as="geometry" />
        </mxCell>
        <mxCell id="IvMWWoh6O5VcTkv94cO7-2" value="" style="html=1;points=[[0,0,0,0,5],[0,1,0,0,-5],[1,0,0,0,5],[1,1,0,0,-5]];perimeter=orthogonalPerimeter;outlineConnect=0;targetShapes=umlLifeline;portConstraint=eastwest;newEdgeStyle={&quot;curved&quot;:0,&quot;rounded&quot;:0};" vertex="1" parent="Erd0pCjpf10aL4VD4ASl-2">
          <mxGeometry x="45" y="90" width="10" height="390" as="geometry" />
        </mxCell>
        <mxCell id="Erd0pCjpf10aL4VD4ASl-3" value="requestHelpScreen()" style="html=1;verticalAlign=bottom;endArrow=block;curved=0;rounded=0;" parent="1" edge="1">
          <mxGeometry width="80" relative="1" as="geometry">
            <mxPoint x="182.42" y="220" as="sourcePoint" />
            <mxPoint x="377.42" y="220" as="targetPoint" />
          </mxGeometry>
        </mxCell>
        <mxCell id="Erd0pCjpf10aL4VD4ASl-5" value="loadHelpScreen()" style="html=1;verticalAlign=bottom;endArrow=open;endSize=8;curved=0;rounded=0;" parent="1" edge="1" target="IvMWWoh6O5VcTkv94cO7-2">
          <mxGeometry x="0.0016" relative="1" as="geometry">
            <mxPoint x="584.84" y="290" as="sourcePoint" />
            <mxPoint x="389.995172413793" y="290" as="targetPoint" />
            <Array as="points">
              <mxPoint x="499.84000000000003" y="290" />
            </Array>
            <mxPoint as="offset" />
          </mxGeometry>
        </mxCell>
        <mxCell id="Erd0pCjpf10aL4VD4ASl-27" value="closeHelpScreen()" style="html=1;verticalAlign=bottom;endArrow=block;curved=0;rounded=0;" parent="1" edge="1">
          <mxGeometry width="80" relative="1" as="geometry">
            <mxPoint x="182.5" y="570" as="sourcePoint" />
            <mxPoint x="377.5" y="570" as="targetPoint" />
            <mxPoint as="offset" />
          </mxGeometry>
        </mxCell>
        <mxCell id="Erd0pCjpf10aL4VD4ASl-31" value="terminateHelpScreen()" style="html=1;verticalAlign=bottom;endArrow=block;curved=0;rounded=0;" parent="1" target="LBmFKRfOaEfn4A8cY6IC-1" edge="1">
          <mxGeometry width="80" relative="1" as="geometry">
            <mxPoint x="380" y="590" as="sourcePoint" />
            <mxPoint x="575" y="590" as="targetPoint" />
          </mxGeometry>
        </mxCell>
        <mxCell id="Hrz58qe9vxwctcW8gFNo-3" value="&lt;span style=&quot;font-size: 8px;&quot;&gt;loop&lt;/span&gt;&lt;div&gt;&lt;span style=&quot;font-size: 8px;&quot;&gt;[isCompleted()]&lt;/span&gt;&lt;/div&gt;" style="shape=umlFrame;whiteSpace=wrap;html=1;pointerEvents=0;width=70;height=40;" parent="1" vertex="1">
          <mxGeometry x="90" y="350" width="560" height="170" as="geometry" />
        </mxCell>
        <mxCell id="Hrz58qe9vxwctcW8gFNo-10" value="displayHelpScreen()" style="html=1;verticalAlign=bottom;endArrow=open;endSize=8;curved=0;rounded=0;" parent="1" edge="1">
          <mxGeometry x="0.0001" relative="1" as="geometry">
            <mxPoint x="377.42" y="320" as="sourcePoint" />
            <mxPoint x="182.575172413793" y="320" as="targetPoint" />
            <Array as="points">
              <mxPoint x="292.42" y="320" />
            </Array>
            <mxPoint as="offset" />
          </mxGeometry>
        </mxCell>
        <mxCell id="Hrz58qe9vxwctcW8gFNo-11" value="navigateHelpScreen()" style="html=1;verticalAlign=bottom;endArrow=block;curved=0;rounded=0;" parent="1" edge="1">
          <mxGeometry width="80" relative="1" as="geometry">
            <mxPoint x="182.5" y="380" as="sourcePoint" />
            <mxPoint x="377.5" y="380" as="targetPoint" />
            <Array as="points">
              <mxPoint x="280" y="380" />
            </Array>
            <mxPoint as="offset" />
          </mxGeometry>
        </mxCell>
        <mxCell id="Hrz58qe9vxwctcW8gFNo-14" value="processNavigation()" style="html=1;verticalAlign=bottom;endArrow=block;curved=0;rounded=0;" parent="1" target="LBmFKRfOaEfn4A8cY6IC-1" edge="1">
          <mxGeometry width="80" relative="1" as="geometry">
            <mxPoint x="380" y="420" as="sourcePoint" />
            <mxPoint x="575" y="420" as="targetPoint" />
            <Array as="points">
              <mxPoint x="477.5" y="420" />
            </Array>
            <mxPoint as="offset" />
          </mxGeometry>
        </mxCell>
        <mxCell id="LBmFKRfOaEfn4A8cY6IC-1" value=":GameSystem" style="shape=umlLifeline;perimeter=lifelinePerimeter;whiteSpace=wrap;html=1;container=1;dropTarget=0;collapsible=0;recursiveResize=0;outlineConnect=0;portConstraint=eastwest;newEdgeStyle={&quot;curved&quot;:0,&quot;rounded&quot;:0};" parent="1" vertex="1">
          <mxGeometry x="540" y="120" width="100" height="500" as="geometry" />
        </mxCell>
        <mxCell id="IvMWWoh6O5VcTkv94cO7-3" value="" style="html=1;points=[[0,0,0,0,5],[0,1,0,0,-5],[1,0,0,0,5],[1,1,0,0,-5]];perimeter=orthogonalPerimeter;outlineConnect=0;targetShapes=umlLifeline;portConstraint=eastwest;newEdgeStyle={&quot;curved&quot;:0,&quot;rounded&quot;:0};" vertex="1" parent="LBmFKRfOaEfn4A8cY6IC-1">
          <mxGeometry x="45" y="120" width="10" height="230" as="geometry" />
        </mxCell>
        <mxCell id="IvMWWoh6O5VcTkv94cO7-4" value="" style="html=1;points=[[0,0,0,0,5],[0,1,0,0,-5],[1,0,0,0,5],[1,1,0,0,-5]];perimeter=orthogonalPerimeter;outlineConnect=0;targetShapes=umlLifeline;portConstraint=eastwest;newEdgeStyle={&quot;curved&quot;:0,&quot;rounded&quot;:0};" vertex="1" parent="LBmFKRfOaEfn4A8cY6IC-1">
          <mxGeometry x="45" y="460" width="10" height="30" as="geometry" />
        </mxCell>
        <mxCell id="LBmFKRfOaEfn4A8cY6IC-2" value="forwardHelpRequest()" style="html=1;verticalAlign=bottom;endArrow=block;curved=0;rounded=0;" parent="1" edge="1">
          <mxGeometry width="80" relative="1" as="geometry">
            <mxPoint x="390" y="240" as="sourcePoint" />
            <mxPoint x="585" y="240" as="targetPoint" />
          </mxGeometry>
        </mxCell>
        <mxCell id="LBmFKRfOaEfn4A8cY6IC-3" value="isNavigationDone()" style="html=1;verticalAlign=bottom;endArrow=open;endSize=8;curved=0;rounded=0;" parent="1" source="LBmFKRfOaEfn4A8cY6IC-1" edge="1">
          <mxGeometry x="-0.0015" relative="1" as="geometry">
            <mxPoint x="574.84" y="459.6" as="sourcePoint" />
            <mxPoint x="379.995172413793" y="459.6" as="targetPoint" />
            <Array as="points">
              <mxPoint x="489.84000000000003" y="459.6" />
            </Array>
            <mxPoint as="offset" />
          </mxGeometry>
        </mxCell>
        <mxCell id="LBmFKRfOaEfn4A8cY6IC-4" value="visualizeHelp()" style="html=1;verticalAlign=bottom;endArrow=open;endSize=8;curved=0;rounded=0;" parent="1" edge="1">
          <mxGeometry x="-0.0015" relative="1" as="geometry">
            <mxPoint x="380" y="500.4" as="sourcePoint" />
            <mxPoint x="180" y="500" as="targetPoint" />
            <Array as="points">
              <mxPoint x="279.84000000000003" y="500" />
            </Array>
            <mxPoint as="offset" />
          </mxGeometry>
        </mxCell>
      </root>
    </mxGraphModel>
  </diagram>
</mxfile>
